# Blender 4.3.2
# www.blender.org
mtllib cloud1.mtl
o Mball.001
v 0.170208 0.189061 -3.791430
v -0.194989 0.203456 -4.203260
v -0.071191 -0.186493 -4.318495
v 0.256993 -0.176665 -3.940318
v -0.227683 0.563698 -3.763885
v 0.270994 0.235316 -3.357760
v -0.193344 0.725830 -3.006794
v 0.102458 0.570738 -2.850873
v -0.140500 1.009878 -2.705553
v -0.221897 1.398326 -2.588485
v 0.513192 0.583190 -2.550729
v 0.502077 0.867436 -2.213279
v 0.181139 1.364205 -2.172793
v 0.584039 0.131595 -3.010503
v 0.536134 -0.184172 -3.290446
v 0.535761 -0.587871 -3.303628
v 0.869114 -0.199021 -3.001743
v 1.136938 0.256583 -2.635725
v 0.884054 -0.602430 -3.001941
v 0.593795 -0.980316 -2.993311
v 1.058065 -1.116488 -2.678684
v 0.584255 -1.353959 -2.557846
v 1.367713 -0.963118 -2.563824
v 0.163394 -1.300451 -2.699239
v 0.289956 -1.060315 -3.326916
v 0.183518 -0.988290 -3.792486
v 0.248581 -0.601779 -3.972063
v -0.106145 -0.604775 -4.346538
v -0.183706 -1.010087 -4.208934
v -0.585405 -1.105413 -4.309376
v -1.024764 -1.098537 -4.278551
v -0.600000 -0.600000 -4.517019
v -1.000000 -0.600000 -4.491383
v -0.600000 -0.200000 -4.513243
v -1.000000 -0.200000 -4.487730
v -0.588884 0.297919 -4.298903
v -1.024749 0.289280 -4.269043
v -0.600570 0.633813 -3.866278
v -1.076173 0.581011 -3.873920
v -1.126245 0.702898 -3.397619
v -0.600000 0.756713 -3.400000
v -1.800000 0.449312 -3.400000
v -1.709919 0.695505 -2.988805
v -1.881010 0.921576 -2.586765
v -1.031071 0.956709 -2.970814
v -1.780178 1.310549 -2.184744
v -1.375446 1.360501 -2.589832
v -1.384706 1.781275 -2.189418
v -1.797752 1.530970 -1.853809
v -1.499971 1.900316 -1.795869
v -2.148694 1.713307 -1.398972
v -2.448557 0.986244 -1.377975
v -1.746405 2.140801 -1.366307
v -2.183163 2.543098 -0.941441
v -1.816573 2.602734 -0.974694
v -2.370851 2.671209 -0.601584
v -1.800000 2.830507 -0.600000
v -2.200000 2.818266 -0.200000
v -1.800000 2.897957 -0.200000
v -2.362687 2.675093 0.188141
v -1.800000 2.823007 0.200000
v -1.797158 2.582701 0.584681
v -2.174856 2.531293 0.543414
v -1.823453 2.150921 0.871683
v -2.214226 1.979194 0.894142
v -1.892991 1.387070 1.156518
v -1.840217 1.046467 1.420616
v -1.363834 1.453764 1.016604
v -1.387713 1.048019 1.389982
v -1.821550 0.563650 1.803053
v -1.394688 0.585409 1.791673
v -1.570377 0.192085 1.939445
v -0.940670 0.603343 1.647031
v -0.983781 0.226952 1.821761
v -0.225745 0.194007 1.382114
v -0.503288 0.901405 1.045691
v -0.015386 0.607008 1.097576
v -0.253909 1.006676 0.726786
v -0.600000 1.185952 0.600000
v -0.312200 1.202860 0.128145
v 0.491095 1.026521 0.209912
v 0.183391 0.982139 0.588334
v 0.148794 1.147194 -0.553360
v -0.342401 1.401430 -0.476032
v 0.208217 1.139769 -0.937806
v -0.425005 1.859748 -0.946528
v -0.539105 1.871547 -0.673692
v -0.130546 1.830721 -1.387046
v -0.600000 2.053388 -1.400000
v -0.715194 2.064227 -1.888889
v -0.123384 1.873852 -1.811405
v 0.198251 1.448189 -1.401453
v 0.225399 1.478747 -1.806963
v -1.000000 2.153529 -1.400000
v -1.011914 1.891852 -2.304129
v -0.585325 1.909728 -2.284933
v -1.026929 1.544505 -2.641800
v -0.602059 1.609263 -2.610372
v -0.619131 0.958588 -3.000025
v -0.206247 1.794717 -2.194176
v -1.379938 2.181591 -1.392255
v -0.762371 2.145460 -0.954954
v -1.004153 2.240589 -1.149422
v -1.069003 2.575289 -0.579975
v -1.014143 2.607481 -0.197031
v -0.719748 2.200000 -0.200000
v 0.562863 0.961742 -1.732356
v 0.944898 0.483164 -0.988287
v 0.887997 0.564319 -0.634237
v 0.588483 0.970851 -0.160585
v 0.969359 0.592306 -0.186535
v 0.974115 0.583344 0.203291
v 0.970794 0.611149 -1.447494
v 1.305163 0.506977 -1.831283
v 1.010323 0.602854 -2.207788
v 1.463953 0.276631 -2.253661
v 1.438829 -0.158848 -2.634980
v 1.699772 -0.200000 -2.200000
v 1.709262 -0.600000 -2.200000
v 1.446432 -0.607067 -2.650043
v 1.490144 -1.107137 -2.230693
v 1.341445 -1.330353 -1.801558
v 1.621013 -1.000000 -1.800000
v 1.762485 -0.600000 -1.800000
v 1.459575 -1.055273 -1.341420
v 1.668768 -0.600000 -1.400000
v 1.659308 -0.200000 -1.400000
v 1.753797 -0.200000 -1.800000
v 1.451890 0.238185 -1.391833
v 1.590406 0.200000 -1.800000
v 1.354063 -0.203105 -0.940147
v 1.383586 -0.596225 -0.994020
v 1.151484 -1.000000 -1.000000
v 1.063905 -0.665060 -0.570510
v 0.932158 -1.119828 -0.954837
v 1.156703 -0.207856 -0.518294
v 1.118520 0.184792 -0.576921
v 1.224226 0.200000 -1.000000
v 1.115109 -0.200000 0.200000
v 1.115109 0.200000 0.200000
v 0.977374 -0.582507 0.192671
v 1.004119 -0.585566 -0.212005
v 0.978147 -0.197498 0.579019
v 0.574150 -0.979953 0.196824
v 0.616393 -0.983890 -0.347587
v 0.636050 -1.027787 -0.597975
v 0.143258 -1.515700 -1.332082
v 0.989934 -1.422271 -1.400727
v 0.914625 -1.541850 -1.812875
v 0.200000 -1.561518 -1.800000
v 1.039208 -1.436955 -2.236547
v 0.600000 -1.521710 -2.200000
v -0.159282 -1.436240 -2.239459
v -0.152773 -1.607797 -1.818922
v -0.582516 -1.827642 -1.813332
v -0.180206 -1.672479 -1.432025
v -0.200000 -1.560999 -1.000000
v -0.590218 -1.901607 -0.972174
v -0.600000 -1.966781 -1.400000
v -0.619915 -1.745228 -0.670847
v -0.932939 -1.836670 -0.570649
v -1.000000 -2.081410 -1.000000
v -1.180531 -1.388836 -0.104003
v -0.591823 -1.313308 -0.218931
v -0.990054 -1.193075 0.208262
v -0.821340 -1.045090 0.951506
v -0.498111 -1.033486 0.733514
v -1.247568 -0.979095 1.398296
v -0.359326 -0.607835 1.260124
v -1.000000 -0.600000 1.652548
v -0.987825 -0.220946 1.814274
v -0.174603 -0.196254 1.348949
v -1.512844 -0.189520 1.932144
v -1.497607 -0.579519 1.802403
v -2.040743 -1.054426 1.426827
v -1.401844 -1.221148 0.970201
v -2.176518 -1.376132 0.923774
v -2.044665 -1.433937 0.615360
v -2.031529 -1.470104 0.204617
v -1.800000 -1.579830 -0.200000
v -2.850473 -1.547956 1.052210
v -2.884614 -1.787729 0.571518
v -3.012283 -1.345923 1.341328
v -2.568804 -1.058986 1.464624
v -3.266684 -1.037488 1.606617
v -2.591186 -0.248151 1.812896
v -3.335816 -0.186864 1.854862
v -2.681578 0.215601 1.791339
v -3.305644 0.642308 1.689234
v -2.600000 0.600000 1.666649
v -3.291114 1.021765 1.447210
v -2.627681 1.008428 1.371621
v -2.970751 1.448467 0.970475
v -2.991033 1.805807 0.583592
v -2.600000 1.800000 0.845849
v -3.400000 1.582757 0.600000
v -3.399472 1.395698 0.997436
v -3.822337 1.380615 0.864316
v -3.770488 0.979546 1.381303
v -3.807388 0.360626 1.703672
v -3.427580 0.227520 1.819235
v -3.966197 -0.195985 1.719187
v -3.336393 -0.583678 1.796530
v -3.800000 -0.600000 1.694633
v -3.831389 -1.063557 1.467621
v -3.398323 -1.346377 1.350796
v -3.817216 -1.477473 1.069754
v -3.408828 -1.736188 0.810509
v -3.782707 -1.783743 0.373111
v -3.373044 -1.885172 0.035402
v -3.766733 -1.781731 -0.192242
v -3.388643 -1.759533 -0.549666
v -3.800000 -1.644405 -0.600000
v -3.002907 -1.817377 -0.356850
v -3.000000 -1.490275 -1.000000
v -3.402453 -1.446827 -1.060046
v -2.437351 -1.691828 -0.275774
v -2.600000 -1.558307 -1.000000
v -2.712184 -1.424661 -1.402405
v -2.977869 -1.315526 -1.303185
v -3.002726 -1.207256 -2.195009
v -3.400000 -1.121030 -1.400000
v -3.377596 -0.899673 -1.772581
v -3.529775 -0.598298 -1.820102
v -3.063234 -1.070925 -2.652920
v -3.316586 -0.600000 -2.600000
v -3.353474 -0.198236 -2.558865
v -3.064528 -0.622847 -3.094705
v -3.091401 -0.193349 -3.101839
v -2.998080 0.198293 -3.002622
v -3.213499 0.202286 -2.595458
v -2.910003 0.570960 -2.551237
v -3.457886 0.266247 -1.816660
v -3.012600 0.644501 -1.847805
v -2.554340 0.752260 -2.524550
v -2.555003 0.577856 -2.978471
v -2.607350 0.199198 -3.293715
v -2.158895 0.229176 -3.457429
v -2.644512 -0.158552 -3.419005
v -2.020926 -0.195178 -3.716308
v -2.617457 -0.616139 -3.406543
v -2.051058 -0.585907 -3.688215
v -2.206481 -1.018082 -3.373834
v -1.791994 -0.955812 -3.730370
v -1.420046 -1.391468 -3.333021
v -1.073056 -1.414409 -3.855951
v -1.361437 -0.971153 -4.179897
v -1.429829 -0.605031 -4.286767
v -1.425122 -0.192945 -4.283589
v -1.785361 0.146973 -3.754969
v -1.353708 0.161683 -4.178013
v -1.790832 -1.389111 -2.940473
v -1.214825 -1.534897 -2.622001
v -1.000000 -1.485883 -3.000000
v -1.435333 -1.777304 -2.190254
v -1.004714 -1.701129 -2.239859
v -0.607087 -1.431862 -2.592692
v -0.600000 -1.553853 -3.400000
v -1.000000 -1.528768 -3.400000
v -0.183786 -1.426287 -3.368075
v 0.114076 -1.272558 -3.000000
v -0.221257 -1.381082 -3.769295
v -2.147189 -1.632912 -2.234567
v -1.867121 -1.273334 -3.214121
v -2.604108 -1.392512 -2.604120
v -2.683892 -1.109342 -3.089070
v -2.965326 -0.973412 -2.970851
v -2.617823 -1.444489 -2.205937
v -2.220590 -1.681208 -1.819246
v -1.800281 -1.983242 -1.386354
v -0.601087 -1.455818 -3.868772
v -2.141603 0.954248 -2.198328
v -2.813334 0.932783 -1.354892
v -2.600000 1.400000 -1.242024
v -3.050518 1.388200 -1.044603
v -2.376369 2.128201 -1.139949
v -3.400000 1.564804 -0.600000
v -2.981995 1.983754 -0.634527
v -2.558814 2.174836 -0.987511
v -2.684311 2.498124 -0.230036
v -2.927230 2.132912 0.192039
v -2.593151 2.177722 0.592093
v -3.344390 1.735298 0.179493
v -3.370473 1.723328 -0.176033
v -3.440332 1.129997 -1.150568
v -3.841529 1.076123 -1.087516
v -3.824077 0.622458 -1.413806
v -3.359338 0.757912 -1.481482
v -3.800000 0.200000 -1.566185
v -3.816139 -0.372662 -1.596989
v -3.613711 -0.200000 -1.800000
v -4.198622 -0.197625 -1.398002
v -4.174792 -0.602113 -1.335758
v -3.772432 -0.939170 -1.389164
v -4.241107 -1.046698 -1.047427
v -3.792866 -1.398645 -0.996409
v -4.212199 -1.419189 -0.614015
v -4.212668 -1.605762 -0.003618
v -4.515731 -1.317499 -0.181903
v -4.604169 -1.003793 -0.606500
v -4.779194 -1.012219 -0.008110
v -4.796850 -0.600000 -0.600000
v -4.949963 -0.596176 -0.030074
v -4.881893 0.009783 -0.602029
v -5.019715 -0.200942 0.057976
v -4.924047 0.390385 -0.221289
v -4.622585 0.771514 -0.612465
v -4.599380 0.991407 -0.182248
v -4.591786 0.995061 0.446974
v -4.856940 0.600000 0.200000
v -4.870746 0.374887 0.604474
v -4.097327 1.433947 0.242283
v -4.148449 1.326767 0.587306
v -4.141907 1.386913 -0.215126
v -4.011171 1.319482 -0.619006
v -4.168839 0.967071 -0.970118
v -4.224541 1.027189 1.026425
v -4.593157 0.590847 0.990434
v -4.196972 0.597924 1.396882
v -4.295319 0.214391 1.479417
v -4.682150 0.217118 1.070214
v -4.263611 -0.612692 1.450439
v -4.156514 -0.953973 1.356922
v -4.643523 -0.643180 1.040172
v -4.622612 -1.000942 0.786681
v -4.158692 -1.358742 0.959499
v -4.265048 -1.465206 0.615335
v -4.526865 -1.328489 0.196685
v -4.918175 -0.422790 0.607927
v -4.992428 0.145610 0.193821
v -4.654170 -0.199350 1.174095
v -4.617337 0.039622 -1.026091
v -4.184129 0.205787 -1.376431
v -4.293758 0.642735 -1.129278
v -4.583560 -0.562834 -0.981756
v -2.211089 0.987412 -1.692323
v -2.213304 -1.757802 -0.928068
v -1.545039 -2.079824 -1.041904
v -1.802329 -1.795679 -2.058455
v -1.400000 -2.020082 -1.800000
v -1.000000 -2.016144 -1.800000
v -1.855461 -1.803717 -0.558892
v -2.242057 -1.660641 -0.338941
v -2.837088 -1.840112 0.220090
v -1.392281 -1.872259 -0.546251
v -1.400000 -2.126142 -1.400000
v -1.000000 -2.122923 -1.400000
v -2.592273 -0.606447 1.719798
v 0.688537 0.665341 0.666798
v 0.592822 0.198760 0.967366
v 0.594458 -0.200341 0.965558
v 0.680132 -0.670677 0.671903
v 0.201535 -0.960922 0.607516
v 0.975658 0.198214 0.581730
v 0.168258 -1.112713 0.201960
v -0.200000 -1.220935 -0.200000
v -0.224633 -1.353579 -0.581084
v -0.612557 1.388471 0.210668
v -0.600073 1.776297 -0.225882
v -0.786256 2.185446 0.172537
v -1.025285 2.159766 0.565862
v -1.047325 2.549659 0.186181
v -1.412015 2.168733 0.789205
v -1.415351 2.544665 0.544295
v -0.929050 1.413619 0.731536
v -1.116358 1.055449 1.273046
v -1.400000 2.754651 0.200000
v -1.400000 2.835154 -0.200000
v -1.424149 2.710401 -0.747641
vn 0.7337 0.5476 -0.4023
vn 0.4732 0.5382 -0.6974
vn 0.5580 0.2038 -0.8044
vn 0.8255 0.2165 -0.5212
vn 0.4538 0.8043 -0.3837
vn 0.7172 0.6183 -0.3214
vn 0.5038 0.7439 -0.4391
vn 0.5646 0.6723 -0.4788
vn 0.5403 0.4738 -0.6954
vn 0.4985 0.4939 -0.7125
vn 0.3731 0.7139 -0.5925
vn 0.5897 0.6701 -0.4507
vn 0.7260 0.5278 -0.4409
vn 0.5367 0.5761 -0.6164
vn 0.7935 0.2404 -0.5591
vn 0.8004 -0.2015 -0.5645
vn 0.5659 0.2183 -0.7950
vn 0.4767 0.5904 -0.6513
vn 0.5645 -0.1881 -0.8037
vn 0.4787 -0.6181 -0.6236
vn 0.4172 -0.6030 -0.6800
vn 0.1066 -0.8469 -0.5209
vn 0.6340 -0.4524 -0.6272
vn 0.2083 -0.9426 -0.2609
vn 0.7039 -0.6473 -0.2924
vn 0.7490 -0.5155 -0.4163
vn 0.8210 -0.1721 -0.5444
vn 0.5360 -0.1782 -0.8252
vn 0.4821 -0.5263 -0.7004
vn 0.1262 -0.5980 -0.7915
vn -0.2394 -0.5916 -0.7699
vn 0.1283 -0.1796 -0.9753
vn -0.2392 -0.1779 -0.9545
vn 0.1297 0.2009 -0.9710
vn -0.2382 0.1947 -0.9515
vn 0.1272 0.6077 -0.7839
vn -0.2391 0.5983 -0.7648
vn 0.0951 0.8916 -0.4428
vn -0.2638 0.8501 -0.4558
vn -0.2212 0.9048 -0.3638
vn 0.1243 0.9359 -0.3296
vn -0.3208 0.7782 -0.5399
vn -0.2440 0.8168 -0.5228
vn -0.3670 0.7753 -0.5140
vn -0.2008 0.7085 -0.6765
vn -0.6760 0.6011 -0.4263
vn -0.4692 0.5381 -0.7002
vn -0.5174 0.6989 -0.4938
vn -0.6925 0.5085 -0.5118
vn -0.4163 0.7746 -0.4761
vn -0.5219 0.3478 -0.7789
vn -0.4417 0.5958 -0.6708
vn -0.2428 0.6491 -0.7209
vn -0.3375 0.6964 -0.6333
vn -0.0998 0.7546 -0.6486
vn -0.4809 0.8085 -0.3391
vn -0.0383 0.9419 -0.3338
vn -0.3514 0.9362 0.0052
vn -0.0291 0.9996 -0.0003
vn -0.4599 0.8234 0.3324
vn -0.0340 0.9327 0.3592
vn -0.0230 0.7214 0.6922
vn -0.3022 0.6937 0.6538
vn 0.0093 0.4550 0.8904
vn -0.2144 0.4549 0.8643
vn 0.0070 0.5127 0.8585
vn -0.0133 0.6331 0.7740
vn 0.3262 0.4929 0.8066
vn 0.1736 0.6419 0.7468
vn -0.0610 0.4621 0.8847
vn 0.1301 0.4929 0.8603
vn 0.0304 0.1390 0.9898
vn 0.3549 0.5193 0.7775
vn 0.3534 0.1667 0.9205
vn 0.4782 0.1599 0.8636
vn 0.3450 0.7592 0.5518
vn 0.4049 0.5337 0.7424
vn 0.2446 0.8864 0.3929
vn 0.4869 0.7747 0.4035
vn 0.3870 0.8908 0.2379
vn 0.4486 0.8730 0.1912
vn 0.2841 0.8445 0.4540
vn 0.4832 0.8752 0.0230
vn 0.6888 0.6562 0.3081
vn 0.6840 0.7017 0.1996
vn 0.6316 0.7244 0.2761
vn 0.8278 0.5339 0.1723
vn 0.6046 0.7683 0.2101
vn 0.3806 0.9243 0.0290
vn 0.1123 0.9692 -0.2190
vn 0.5667 0.8167 -0.1089
vn 0.7811 0.5759 0.2414
vn 0.7910 0.6051 -0.0908
vn 0.1445 0.9554 -0.2576
vn -0.2044 0.8300 -0.5189
vn 0.1841 0.8432 -0.5051
vn -0.2167 0.5943 -0.7745
vn 0.1615 0.6219 -0.7662
vn 0.1681 0.7283 -0.6644
vn 0.5123 0.7397 -0.4364
vn -0.0035 0.8423 -0.5391
vn 0.6284 0.7698 -0.1118
vn 0.4145 0.8191 -0.3966
vn 0.6035 0.7631 -0.2312
vn 0.6609 0.7504 0.0097
vn 0.8801 0.4689 0.0750
vn 0.7044 0.7098 0.0015
vn 0.6768 0.7170 0.1669
vn 0.7345 0.6749 -0.0711
vn 0.5778 0.8104 -0.0969
vn 0.8244 0.5628 -0.0602
vn 0.8258 0.5336 0.1826
vn 0.5426 0.8003 0.2550
vn 0.6135 0.7894 0.0204
vn 0.4574 0.8111 -0.3644
vn 0.7258 0.5957 -0.3439
vn 0.7030 0.2205 -0.6762
vn 0.9283 0.2004 -0.3133
vn 0.9351 -0.1586 -0.3170
vn 0.7063 -0.1456 -0.6928
vn 0.7493 -0.5813 -0.3172
vn 0.6124 -0.7887 0.0543
vn 0.8736 -0.4842 0.0493
vn 0.9843 -0.1702 0.0468
vn 0.7190 -0.5443 0.4322
vn 0.9047 -0.1591 0.3952
vn 0.8988 0.1966 0.3918
vn 0.9760 0.2128 0.0455
vn 0.7515 0.5634 0.3433
vn 0.8482 0.5277 0.0457
vn 0.8646 0.1174 0.4885
vn 0.8015 -0.2139 0.5584
vn 0.5737 -0.5753 0.5830
vn 0.7794 -0.4653 0.4196
vn 0.3753 -0.7495 0.5453
vn 0.9672 -0.0378 0.2513
vn 0.9319 0.3483 0.1013
vn 0.8011 0.4719 0.3682
vn 0.9694 -0.1535 0.1916
vn 0.9674 0.1837 0.1745
vn 0.8271 -0.5238 0.2036
vn 0.8471 -0.5150 0.1309
vn 0.8349 -0.1760 0.5215
vn 0.5049 -0.8407 0.1958
vn 0.5641 -0.8115 0.1525
vn 0.4341 -0.8361 0.3354
vn 0.2656 -0.9284 0.2598
vn 0.3212 -0.8672 0.3805
vn 0.2307 -0.9728 0.0198
vn 0.0981 -0.9938 -0.0526
vn 0.3693 -0.8655 -0.3384
vn 0.0260 -0.9583 -0.2844
vn 0.1350 -0.9453 -0.2970
vn 0.2972 -0.9219 -0.2484
vn 0.4088 -0.8183 -0.4041
vn 0.4554 -0.8891 0.0453
vn 0.5522 -0.7607 0.3413
vn 0.4978 -0.8177 0.2891
vn 0.4701 -0.8799 -0.0684
vn 0.4629 -0.7115 0.5286
vn 0.2470 -0.7559 0.6063
vn 0.1800 -0.9443 0.2754
vn 0.1899 -0.8180 0.5429
vn 0.2284 -0.8606 0.4553
vn 0.1929 -0.9447 0.2652
vn 0.2872 -0.8897 0.3550
vn 0.1182 -0.9760 0.1830
vn 0.2333 -0.7726 0.5904
vn 0.3979 -0.5640 0.7235
vn 0.3498 -0.5189 0.7800
vn 0.3579 -0.1900 0.9142
vn 0.4621 -0.1943 0.8653
vn 0.0596 -0.1521 0.9866
vn 0.0844 -0.4763 0.8752
vn 0.0544 -0.7434 0.6667
vn 0.2215 -0.9280 0.2996
vn 0.2101 -0.8864 0.4126
vn 0.2861 -0.9379 0.1960
vn 0.2870 -0.9384 0.1926
vn 0.0872 -0.8719 0.4819
vn 0.2028 -0.8198 0.5355
vn 0.1975 -0.9421 0.2708
vn 0.1217 -0.7082 0.6955
vn 0.1463 -0.6100 0.7788
vn -0.0187 -0.5100 0.8599
vn -0.0221 -0.1195 0.9926
vn -0.0731 -0.0373 0.9966
vn -0.0324 0.1798 0.9832
vn -0.0545 0.4369 0.8979
vn -0.0464 0.4599 0.8867
vn -0.0428 0.6454 0.7627
vn -0.0183 0.6198 0.7845
vn -0.1568 0.6991 0.6976
vn -0.4985 0.6790 0.5390
vn -0.3998 0.5939 0.6982
vn -0.3050 0.8781 0.3687
vn -0.1271 0.8267 0.5481
vn -0.3208 0.8342 0.4484
vn -0.3002 0.6135 0.7304
vn -0.3213 0.2858 0.9028
vn -0.1023 0.1848 0.9774
vn -0.4108 -0.0437 0.9107
vn -0.0630 -0.2890 0.9552
vn -0.3004 -0.2897 0.9088
vn -0.3206 -0.5317 0.7839
vn -0.0957 -0.7134 0.6942
vn -0.3206 -0.7747 0.5450
vn -0.0898 -0.9124 0.3992
vn -0.3057 -0.9358 0.1755
vn -0.0676 -0.9976 -0.0135
vn -0.3063 -0.9375 -0.1653
vn -0.0840 -0.9199 -0.3831
vn -0.3208 -0.8615 -0.3936
vn 0.0828 -0.9649 -0.2491
vn -0.0477 -0.9045 -0.4238
vn -0.1161 -0.8044 -0.5826
vn 0.1503 -0.9878 -0.0405
vn -0.2328 -0.9554 -0.1817
vn -0.4507 -0.8805 -0.1468
vn -0.4003 -0.8317 -0.3848
vn -0.5883 -0.7984 -0.1286
vn -0.3900 -0.7588 -0.5216
vn -0.6976 -0.6212 -0.3571
vn -0.8206 -0.2993 -0.4869
vn -0.7110 -0.6387 -0.2942
vn -0.9100 -0.2417 -0.3368
vn -0.9245 0.1065 -0.3661
vn -0.7340 -0.2341 -0.6376
vn -0.7578 0.1318 -0.6391
vn -0.6747 0.4760 -0.5640
vn -0.8156 0.4491 -0.3648
vn -0.5706 0.7668 -0.2940
vn -0.7220 0.4642 -0.5130
vn -0.4429 0.8333 -0.3308
vn -0.3521 0.9042 -0.2418
vn -0.3562 0.7733 -0.5245
vn -0.4289 0.4767 -0.7673
vn -0.3444 0.5788 -0.7391
vn -0.4936 0.1591 -0.8550
vn -0.5661 0.1692 -0.8068
vn -0.4800 -0.2496 -0.8410
vn -0.5676 -0.2023 -0.7981
vn -0.3677 -0.6031 -0.7078
vn -0.5670 -0.5677 -0.5968
vn -0.3360 -0.9099 -0.2435
vn -0.2765 -0.8598 -0.4293
vn -0.5217 -0.5071 -0.6861
vn -0.5643 -0.1692 -0.8080
vn -0.5568 0.1827 -0.8103
vn -0.5508 0.5128 -0.6586
vn -0.5110 0.5104 -0.6917
vn -0.1450 -0.9334 -0.3281
vn 0.0494 -0.9510 -0.3052
vn -0.0449 -0.9989 0.0116
vn -0.0131 -0.8698 -0.4932
vn 0.1934 -0.8549 -0.4813
vn 0.1886 -0.9708 -0.1481
vn 0.1113 -0.9933 -0.0299
vn -0.1799 -0.9825 -0.0481
vn 0.4223 -0.9047 -0.0572
vn 0.6115 -0.7723 -0.1720
vn 0.4485 -0.8222 -0.3506
vn -0.2846 -0.9179 -0.2765
vn -0.3103 -0.8465 -0.4326
vn -0.3819 -0.8743 -0.2995
vn -0.4212 -0.6734 -0.6076
vn -0.6480 -0.5468 -0.5302
vn -0.4542 -0.8846 -0.1060
vn -0.4402 -0.8878 -0.1344
vn -0.4085 -0.9069 -0.1030
vn 0.0993 -0.8974 -0.4298
vn -0.4876 0.8434 -0.2256
vn -0.1838 0.6814 -0.7085
vn -0.3726 0.2515 -0.8933
vn -0.3631 0.5298 -0.7664
vn -0.4299 0.4320 -0.7928
vn -0.4711 0.7641 -0.4406
vn -0.6821 0.5840 -0.4400
vn -0.6326 0.3607 -0.6854
vn -0.6803 0.7316 -0.0446
vn -0.6744 0.6771 0.2945
vn -0.4990 0.5960 0.6291
vn -0.5242 0.8330 0.1769
vn -0.5757 0.8101 -0.1112
vn -0.2061 0.6731 -0.7103
vn -0.3416 0.6629 -0.6663
vn -0.3414 0.4254 -0.8381
vn -0.2751 0.6401 -0.7173
vn -0.5054 0.2363 -0.8299
vn -0.5785 -0.1288 -0.8055
vn -0.8160 0.0511 -0.5758
vn -0.5705 -0.0375 -0.8205
vn -0.5460 -0.2869 -0.7871
vn -0.4584 -0.5231 -0.7185
vn -0.5622 -0.5285 -0.6361
vn -0.3198 -0.7285 -0.6058
vn -0.5470 -0.7383 -0.3945
vn -0.5324 -0.8447 -0.0561
vn -0.7131 -0.6765 -0.1837
vn -0.7723 -0.5015 -0.3899
vn -0.8705 -0.4906 -0.0379
vn -0.8909 -0.2557 -0.3753
vn -0.9553 -0.2871 -0.0705
vn -0.9196 0.0630 -0.3877
vn -0.9981 -0.0518 -0.0329
vn -0.9391 0.2901 -0.1843
vn -0.7702 0.4954 -0.4017
vn -0.7519 0.6432 -0.1447
vn -0.7542 0.6264 0.1970
vn -0.9046 0.4223 0.0583
vn -0.9177 0.2579 0.3023
vn -0.4948 0.8647 0.0867
vn -0.5158 0.8094 0.2808
vn -0.5366 0.8268 -0.1688
vn -0.4567 0.7884 -0.4122
vn -0.5346 0.6155 -0.5791
vn -0.5620 0.6341 0.5311
vn -0.7517 0.4196 0.5087
vn -0.5388 0.4162 0.7324
vn -0.6028 0.1700 0.7795
vn -0.8189 0.1815 0.5444
vn -0.5828 -0.2614 0.7695
vn -0.5287 -0.4818 0.6989
vn -0.7811 -0.3058 0.5444
vn -0.7818 -0.5000 0.3727
vn -0.5203 -0.6921 0.5003
vn -0.5678 -0.7716 0.2867
vn -0.7306 -0.6758 0.0977
vn -0.9432 -0.1687 0.2863
vn -0.9863 0.1416 0.0848
vn -0.7917 -0.0409 0.6095
vn -0.7750 0.0928 -0.6252
vn -0.5423 0.1844 -0.8197
vn -0.6046 0.4076 -0.6843
vn -0.7544 -0.2421 -0.6101
vn -0.6108 0.7144 -0.3413
vn -0.3903 -0.9199 0.0389
vn -0.1992 -0.9570 0.2108
vn -0.2407 -0.9056 -0.3493
vn -0.1271 -0.9176 -0.3766
vn 0.1922 -0.8919 -0.4093
vn -0.1670 -0.8932 0.4174
vn -0.0175 -0.9834 0.1806
vn 0.2146 -0.9738 0.0758
vn -0.0003 -0.8280 0.5608
vn -0.1485 -0.9843 -0.0954
vn 0.1914 -0.9788 -0.0735
vn 0.0385 -0.3835 0.9228
vn 0.5954 0.5734 0.5628
vn 0.5680 0.1811 0.8029
vn 0.5647 -0.1897 0.8032
vn 0.5873 -0.5730 0.5717
vn 0.2915 -0.8284 0.4782
vn 0.8337 0.1750 0.5237
vn 0.2320 -0.9459 0.2269
vn 0.2007 -0.9522 0.2304
vn 0.4114 -0.8354 0.3646
vn 0.7382 0.5695 0.3616
vn 0.9205 0.3105 0.2373
vn 0.8582 0.3890 0.3351
vn 0.6551 0.3856 0.6498
vn 0.6397 0.6876 0.3434
vn 0.3214 0.4109 0.8532
vn 0.3161 0.6786 0.6630
vn 0.6447 0.4582 0.6119
vn 0.3645 0.6700 0.6467
vn 0.3203 0.8817 0.3464
vn 0.3337 0.9427 -0.0065
vn 0.2670 0.8650 -0.4248
s 1
f 2//2 1//1 3//3
f 4//4 3//3 1//1
f 2//2 5//5 1//1
f 1//1 5//5 6//6
f 9//9 12//12 8//8
f 12//12 11//11 8//8
f 11//11 14//14 8//8
f 6//6 14//14 15//15
f 17//17 15//15 14//14
f 18//18 17//17 14//14
f 21//21 20//20 19//19
f 21//21 22//22 20//20
f 20//20 22//22 24//24
f 25//25 20//20 24//24
f 27//27 16//16 26//26
f 40//40 42//42 43//43
f 45//45 43//43 44//44
f 44//44 46//46 47//47
f 47//47 46//46 48//48
f 48//48 46//46 49//49
f 48//48 49//49 50//50
f 50//50 51//51 53//53
f 276//276 53//53 51//51
f 72//72 71//71 70//70
f 73//73 71//71 74//74
f 75//75 73//73 74//74
f 76//76 73//73 77//77
f 78//78 79//79 76//76
f 83//83 80//80 81//81
f 83//83 85//85 84//84
f 84//84 85//85 86//86
f 87//87 84//84 86//86
f 88//88 89//89 86//86
f 89//89 90//90 94//94
f 97//97 45//45 47//47
f 103//103 102//102 94//94
f 102//102 103//103 104//104
f 86//86 102//102 87//87
f 107//107 92//92 85//85
f 114//114 107//107 113//113
f 115//115 116//116 18//18
f 118//118 117//117 116//116
f 121//121 23//23 119//119
f 120//120 119//119 23//23
f 121//121 123//123 122//122
f 127//127 129//129 131//131
f 135//135 133//133 134//134
f 139//139 143//143 141//141
f 142//142 145//145 134//134
f 135//135 146//146 147//147
f 122//122 125//125 148//148
f 151//151 152//152 22//22
f 153//153 150//150 154//154
f 158//158 156//156 157//157
f 162//162 158//158 161//161
f 164//164 165//165 163//163
f 166//166 169//169 168//168
f 169//169 170//170 168//168
f 172//172 171//171 169//169
f 170//170 169//169 171//171
f 171//171 173//173 174//174
f 174//174 175//175 168//168
f 176//176 177//177 178//178
f 178//178 177//177 181//181
f 182//182 178//178 181//181
f 184//184 185//185 183//183
f 186//186 187//187 203//203
f 186//186 188//188 187//187
f 190//190 192//192 189//189
f 193//193 191//191 192//192
f 195//195 194//194 193//193
f 197//197 193//193 196//196
f 200//200 189//189 199//199
f 187//187 202//202 203//203
f 202//202 204//204 203//203
f 185//185 205//205 206//206
f 207//207 206//206 205//205
f 209//209 208//208 207//207
f 208//208 209//209 210//210
f 211//211 210//210 209//209
f 211//211 212//212 210//210
f 213//213 212//212 211//211
f 219//219 218//218 215//215
f 220//220 219//219 215//215
f 227//227 226//226 224//224
f 231//231 230//230 227//227
f 229//229 227//227 230//230
f 230//230 231//231 232//232
f 232//232 233//233 234//234
f 235//235 232//232 234//234
f 236//236 232//232 235//235
f 44//44 236//236 235//235
f 237//237 236//236 238//238
f 240//240 239//239 238//238
f 237//237 238//238 239//239
f 242//242 244//244 243//243
f 243//243 244//244 264//264
f 244//244 247//247 246//246
f 251//251 250//250 39//39
f 264//264 245//245 252//252
f 254//254 253//253 245//245
f 253//253 256//256 255//255
f 257//257 253//253 254//254
f 258//258 260//260 257//257
f 260//260 24//24 257//257
f 153//153 257//257 24//24
f 264//264 252//252 263//263
f 266//266 264//264 265//265
f 243//243 266//266 241//241
f 266//266 267//267 241//241
f 228//228 241//241 267//267
f 263//263 268//268 265//265
f 263//263 269//269 268//268
f 225//225 265//265 221//221
f 265//265 264//264 263//263
f 246//246 259//259 245//245
f 239//239 229//229 230//230
f 237//237 230//230 236//236
f 44//44 235//235 272//272
f 234//234 273//273 52//52
f 274//274 275//275 276//276
f 276//276 51//51 274//274
f 276//276 278//278 279//279
f 279//279 278//278 56//56
f 283//283 194//194 281//281
f 281//281 282//282 60//60
f 233//233 289//289 288//288
f 287//287 288//288 289//289
f 227//227 224//224 291//291
f 293//293 290//290 294//294
f 294//294 295//295 293//293
f 297//297 298//298 299//299
f 297//297 299//299 300//300
f 301//301 300//300 299//299
f 306//306 304//304 305//305
f 307//307 306//306 308//308
f 306//306 310//310 308//308
f 314//314 308//308 309//309
f 312//312 314//314 309//309
f 316//316 307//307 315//315
f 312//312 313//313 198//198
f 317//317 309//309 318//318
f 322//322 324//324 323//323
f 325//325 323//323 324//324
f 326//326 325//325 327//327
f 328//328 327//327 325//325
f 303//303 329//329 305//305
f 311//311 330//330 329//329
f 305//305 329//329 330//330
f 331//331 329//329 324//324
f 329//329 325//325 324//324
f 322//322 331//331 324//324
f 311//311 321//321 318//318
f 311//311 318//318 309//309
f 304//304 307//307 332//332
f 333//333 332//332 334//334
f 293//293 335//335 292//292
f 332//332 292//292 335//335
f 335//335 295//295 300//300
f 307//307 334//334 332//332
f 310//310 306//306 330//330
f 306//306 305//305 330//330
f 301//301 299//299 328//328
f 299//299 298//298 328//328
f 287//287 289//289 333//333
f 287//287 334//334 316//316
f 316//316 315//315 286//286
f 285//285 273//273 288//288
f 336//336 234//234 52//52
f 288//288 234//234 233//233
f 294//294 223//223 222//222
f 220//220 216//216 222//222
f 270//270 338//338 337//337
f 342//342 180//180 343//343
f 338//338 345//345 342//342
f 214//214 210//210 212//212
f 298//298 209//209 327//327
f 207//207 326//326 327//327
f 209//209 207//207 327//327
f 323//323 326//326 205//205
f 204//204 202//202 322//322
f 320//320 200//200 319//319
f 319//319 200//200 199//199
f 199//199 317//317 319//319
f 313//313 317//317 198//198
f 283//283 196//196 194//194
f 70//70 67//67 192//192
f 190//190 70//70 192//192
f 189//189 201//201 188//188
f 188//188 72//72 70//70
f 72//72 186//186 173//173
f 183//183 185//185 206//206
f 349//349 77//77 350//350
f 349//349 82//82 77//77
f 352//352 351//351 169//169
f 351//351 172//172 169//169
f 349//349 350//350 354//354
f 166//166 353//353 169//169
f 144//144 353//353 355//355
f 357//357 356//356 164//164
f 357//357 164//164 160//160
f 161//161 163//163 345//345
f 156//156 147//147 157//157
f 147//147 357//357 157//157
f 141//141 352//352 144//144
f 354//354 140//140 112//112
f 134//134 136//136 142//142
f 146//146 135//135 134//134
f 129//129 114//114 113//113
f 138//138 129//129 108//108
f 358//358 84//84 359//359
f 360//360 358//358 359//359
f 106//106 360//360 359//359
f 361//361 360//360 362//362
f 363//363 361//361 364//364
f 365//365 68//68 366//366
f 358//358 365//365 79//79
f 78//78 76//76 82//82
f 77//77 82//82 76//76
f 69//69 71//71 366//366
f 73//73 366//366 71//71
f 68//68 69//69 366//366
f 66//66 68//68 64//64
f 363//363 64//64 68//68
f 65//65 195//195 193//193
f 195//195 65//65 282//282
f 282//282 65//65 63//63
f 364//364 362//362 367//367
f 276//276 279//279 54//54
f 49//49 336//336 52//52
f 44//44 272//272 46//46
f 251//251 39//39 37//37
f 31//31 247//247 33//33
f 248//248 33//33 247//247
f 260//260 25//25 261//261
f 16//16 19//19 20//20
f 23//23 21//21 120//120
f 19//19 120//120 21//21
f 117//117 17//17 18//18
f 6//6 8//8 14//14
f 38//38 5//5 36//36
f 29//29 262//262 30//30
f 271//271 262//262 258//258
f 153//153 154//154 257//257
f 250//250 42//42 39//39
f 40//40 39//39 42//42
f 18//18 116//116 117//117
f 121//121 151//151 21//21
f 130//130 116//116 114//114
f 138//138 131//131 129//129
f 125//125 133//133 135//135
f 155//155 341//341 256//256
f 357//357 160//160 157//157
f 13//13 10//10 100//100
f 13//13 100//100 93//93
f 92//92 88//88 86//86
f 92//92 86//86 85//85
f 10//10 9//9 99//99
f 98//98 10//10 99//99
f 100//100 96//96 90//90
f 91//91 100//100 90//90
f 355//355 167//167 165//165
f 47//47 48//48 97//97
f 45//45 44//44 47//47
f 272//272 336//336 46//46
f 104//104 103//103 369//369
f 106//106 359//359 87//87
f 102//102 106//106 87//87
f 361//361 362//362 364//364
f 101//101 50//50 53//53
f 279//279 56//56 54//54
f 227//227 291//291 233//233
f 278//278 284//284 280//280
f 194//194 195//195 282//282
f 147//147 146//146 357//357
f 355//355 353//353 167//167
f 73//73 76//76 366//366
f 72//72 74//74 71//71
f 278//278 276//276 275//275
f 70//70 190//190 188//188
f 348//348 184//184 175//175
f 25//25 16//16 20//20
f 144//144 352//352 353//353
f 263//263 339//339 269//269
f 273//273 234//234 288//288
f 123//123 125//125 122//122
f 111//111 109//109 110//110
f 137//137 109//109 111//111
f 349//349 354//354 112//112
f 352//352 141//141 143//143
f 145//145 355//355 146//146
f 349//349 81//81 82//82
f 75//75 350//350 77//77
f 79//79 365//365 366//366
f 76//76 79//79 366//366
f 176//176 166//166 168//168
f 45//45 40//40 43//43
f 100//100 10//10 98//98
f 100//100 98//98 96//96
f 87//87 359//359 84//84
f 238//238 250//250 240//240
f 236//236 230//230 232//232
f 225//225 221//221 223//223
f 95//95 48//48 50//50
f 90//90 95//95 50//50
f 343//343 180//180 179//179
f 177//177 175//175 184//184
f 181//181 177//177 184//184
f 273//273 285//285 275//275
f 231//231 227//227 233//233
f 334//334 307//307 316//316
f 297//297 300//300 295//295
f 317//317 318//318 319//319
f 323//323 325//325 326//326
f 9//9 8//8 7//7
f 27//27 26//26 29//29 28//28
f 16//16 25//25 26//26
f 30//30 31//31 33//33 32//32
f 33//33 35//35 34//34 32//32
f 35//35 37//37 36//36 34//34
f 37//37 39//39 38//38 36//36
f 40//40 41//41 38//38 39//39
f 54//54 55//55 53//53 276//276
f 49//49 52//52 51//51
f 50//50 49//49 51//51
f 54//54 56//56 57//57 55//55
f 58//58 59//59 57//57 56//56
f 58//58 60//60 61//61 59//59
f 61//61 60//60 63//63 62//62
f 63//63 65//65 64//64 62//62
f 66//66 67//67 69//69 68//68
f 66//66 64//64 65//65
f 67//67 70//70 71//71 69//69
f 80//80 78//78 82//82 81//81
f 89//89 88//88 91//91 90//90
f 83//83 84//84 80//80
f 88//88 92//92 93//93 91//91
f 98//98 97//97 95//95 96//96
f 96//96 95//95 90//90
f 45//45 97//97 98//98 99//99
f 101//101 94//94 90//90 50//50
f 89//89 94//94 102//102 86//86
f 104//104 105//105 106//106 102//102
f 109//109 108//108 85//85 83//83
f 103//103 101//101 369//369
f 107//107 85//85 108//108
f 110//110 81//81 112//112 111//111
f 109//109 83//83 110//110
f 118//118 119//119 120//120 117//117
f 116//116 115//115 114//114
f 123//123 121//121 119//119 124//124
f 126//126 125//125 123//123 124//124
f 126//126 124//124 128//128 127//127
f 127//127 128//128 130//130 129//129
f 132//132 126//126 127//127 131//131
f 136//136 134//134 132//132 131//131
f 126//126 132//132 125//125
f 132//132 133//133 125//125
f 133//133 132//132 134//134
f 136//136 131//131 138//138 137//137
f 139//139 136//136 137//137 140//140
f 141//141 142//142 136//136 139//139
f 141//141 144//144 145//145 142//142
f 147//147 150//150 149//149 148//148
f 145//145 146//146 134//134
f 147//147 148//148 135//135
f 173//173 171//171 74//74 72//72
f 149//149 122//122 148//148
f 151//151 122//122 149//149
f 153//153 22//22 152//152
f 156//156 155//155 154//154
f 159//159 156//156 158//158
f 158//158 160//160 161//161
f 160//160 164//164 163//163
f 161//161 160//160 163//163
f 165//165 167//167 166//166
f 175//175 177//177 176//176 168//168
f 178//178 179//179 165//165 176//176
f 185//185 184//184 348//348 203//203
f 179//179 163//163 165//165
f 163//163 179//179 180//180
f 183//183 181//181 184//184
f 198//198 199//199 191//191 197//197
f 348//348 186//186 203//203
f 190//190 189//189 188//188
f 192//192 191//191 189//189
f 193//193 194//194 196//196
f 204//204 205//205 185//185 203//203
f 189//189 191//191 199//199
f 201//201 189//189 200//200
f 201//201 202//202 187//187
f 214//214 212//212 216//216 215//215
f 208//208 206//206 207//207
f 214//214 215//215 218//218 217//217
f 219//219 220//220 221//221 268//268
f 220//220 222//222 223//223 221//221
f 223//223 224//224 226//226 225//225
f 226//226 227//227 229//229 228//228
f 242//242 241//241 239//239 240//240
f 232//232 231//231 233//233
f 264//264 244//244 246//246 245//245
f 244//244 242//242 248//248 247//247
f 248//248 242//242 240//240 249//249
f 250//250 251//251 249//249 240//240
f 257//257 254//254 259//259 258//258
f 252//252 245//245 253//253
f 228//228 229//229 239//239 241//241
f 260//260 261//261 24//24
f 266//266 243//243 264//264
f 225//225 267//267 266//266 265//265
f 269//269 270//270 219//219
f 265//265 268//268 221//221
f 273//273 275//275 274//274 52//52
f 245//245 259//259 254//254
f 237//237 239//239 230//230
f 42//42 250//250 238//238
f 281//281 280//280 284//284 283//283
f 278//278 275//275 277//277
f 56//56 278//278 280//280
f 280//280 281//281 60//60
f 194//194 282//282 281//281
f 286//286 315//315 275//275 285//285
f 288//288 287//287 286//286 285//285
f 291//291 290//290 289//289 233//233
f 301//301 303//303 302//302 300//300
f 290//290 291//291 224//224
f 293//293 292//292 290//290
f 294//294 296//296 295//295
f 296//296 297//297 295//295
f 297//297 296//296 213//213
f 303//303 305//305 304//304 302//302
f 314//314 315//315 307//307 308//308
f 306//306 307//307 304//304
f 310//310 309//309 308//308
f 310//310 311//311 309//309
f 313//313 312//312 309//309
f 312//312 198//198 196//196 283//283
f 312//312 283//283 284//284 314//314
f 314//314 284//284 277//277 315//315
f 318//318 321//321 320//320 319//319
f 313//313 309//309 317//317
f 301//301 325//325 329//329 303//303
f 320//320 331//331 202//202
f 202//202 331//331 322//322
f 327//327 328//328 298//298
f 301//301 328//328 325//325
f 331//331 321//321 311//311 329//329
f 335//335 302//302 304//304 332//332
f 200//200 320//320 202//202
f 310//310 330//330 311//311
f 333//333 292//292 332//332
f 334//334 287//287 333//333
f 290//290 292//292 333//333 289//289
f 302//302 335//335 300//300
f 211//211 209//209 298//298
f 222//222 216//216 296//296
f 294//294 222//222 296//296
f 295//295 335//335 293//293
f 234//234 336//336 272//272 235//235
f 286//286 287//287 316//316
f 284//284 278//278 277//277
f 277//277 275//275 315//315
f 274//274 51//51 52//52
f 4//4 1//1 6//6 15//15
f 228//228 267//267 225//225 226//226
f 223//223 294//294 290//290 224//224
f 218//218 219//219 270//270 337//337
f 268//268 269//269 219//219
f 340//340 255//255 256//256 341//341
f 269//269 339//339 270//270
f 339//339 255//255 340//340
f 344//344 217//217 343//343 179//179
f 342//342 337//337 338//338
f 338//338 346//346 347//347 162//162
f 344//344 214//214 217//217
f 270//270 346//346 338//338
f 217//217 218//218 337//337 343//343
f 298//298 297//297 213//213 211//211
f 210//210 344//344 182//182 208//208
f 323//323 205//205 204//204 322//322
f 182//182 181//181 208//208
f 326//326 207//207 205//205
f 208//208 181//181 183//183 206//206
f 317//317 199//199 198//198
f 198//198 197//197 196//196
f 193//193 197//197 191//191
f 186//186 72//72 188//188
f 182//182 344//344 179//179 178//178
f 348//348 174//174 173//173 186//186
f 175//175 174//174 348//348
f 351//351 143//143 354//354 350//350
f 143//143 351//351 352//352
f 172//172 351//351 350//350 75//75
f 165//165 164//164 356//356 355//355
f 170//170 171//171 174//174
f 166//166 167//167 353//353
f 356//356 357//357 146//146 355//355
f 345//345 338//338 162//162 161//161
f 355//355 145//145 144//144
f 162//162 347//347 159//159 158//158
f 159//159 347//347 341//341 155//155
f 147//147 156//156 154//154 150//150
f 143//143 139//139 140//140 354//354
f 130//130 128//128 118//118 116//116
f 108//108 109//109 137//137 138//138
f 129//129 113//113 108//108
f 111//111 112//112 140//140 137//137
f 363//363 68//68 365//365 361//361
f 108//108 113//113 107//107
f 93//93 92//92 107//107
f 110//110 83//83 81//81
f 80//80 84//84 358//358
f 365//365 358//358 360//360 361//361
f 172//172 75//75 74//74 171//171
f 192//192 67//67 66//66 193//193
f 364//364 62//62 64//64 363//363
f 66//66 65//65 193//193
f 61//61 62//62 364//364 367//367
f 368//368 367//367 362//362 105//105
f 368//368 105//105 104//104 369//369
f 61//61 367//367 368//368 59//59
f 53//53 55//55 369//369 101//101
f 56//56 280//280 58//58
f 369//369 55//55 57//57
f 42//42 238//238 236//236 43//43
f 43//43 236//236 44//44
f 3//3 34//34 36//36 2//2
f 251//251 37//37 35//35 249//249
f 248//248 249//249 35//35 33//33
f 31//31 30//30 271//271 246//246
f 30//30 32//32 28//28 29//29
f 120//120 19//19 17//17 117//117
f 22//22 153//153 24//24
f 41//41 99//99 7//7 5//5
f 11//11 115//115 18//18
f 115//115 11//11 12//12
f 9//9 7//7 99//99
f 7//7 8//8 6//6 5//5
f 27//27 28//28 3//3 4//4
f 5//5 2//2 36//36
f 15//15 16//16 27//27 4//4
f 29//29 26//26 262//262
f 28//28 32//32 34//34 3//3
f 25//25 260//260 262//262
f 26//26 25//25 262//262
f 261//261 25//25 24//24
f 339//339 252//252 253//253 255//255
f 262//262 271//271 30//30
f 5//5 38//38 41//41
f 262//262 260//260 258//258
f 247//247 31//31 246//246
f 128//128 124//124 119//119 118//118
f 23//23 121//121 21//21
f 12//12 107//107 114//114 115//115
f 122//122 151//151 121//121
f 148//148 125//125 135//135
f 18//18 14//14 11//11
f 21//21 151//151 22//22
f 45//45 99//99 41//41 40//40
f 152//152 151//151 149//149
f 9//9 10//10 13//13 12//12
f 160//160 158//158 157//157
f 16//16 15//15 17//17 19//19
f 12//12 13//13 93//93 107//107
f 100//100 91//91 93//93
f 57//57 59//59 368//368 369//369
f 48//48 95//95 97//97
f 242//242 243//243 241//241
f 336//336 49//49 46//46
f 58//58 280//280 60//60
f 77//77 73//73 75//75
f 79//79 78//78 80//80 358//358
f 282//282 63//63 60//60
f 202//202 201//201 200//200
f 347//347 346//346 340//340 341//341
f 101//101 103//103 94//94
f 165//165 166//166 176//176
f 168//168 170//170 174//174
f 154//154 155//155 256//256
f 155//155 156//156 159//159
f 150//150 153//153 152//152 149//149
f 130//130 114//114 129//129
f 112//112 81//81 349//349
f 180//180 342//342 345//345 163//163
f 352//352 169//169 353//353
f 259//259 246//246 271//271 258//258
f 154//154 256//256 253//253 257//257
f 213//213 296//296 216//216 212//212
f 252//252 339//339 263//263
f 337//337 342//342 343//343
f 270//270 339//339 340//340 346//346
f 362//362 360//360 106//106 105//105
f 216//216 220//220 215//215
f 210//210 214//214 344//344
f 187//187 188//188 201//201
f 320//320 321//321 331//331
